<?xml version="1.0" encoding="utf-8"?>
<!-- Generator: Adobe Illustrator 15.0.0, SVG Export Plug-In . SVG Version: 6.00 Build 0)  -->
<!DOCTYPE svg PUBLIC "-//W3C//DTD SVG 1.1//EN" "http://www.w3.org/Graphics/SVG/1.1/DTD/svg11.dtd">
<svg version="1.1" id="Layer_1" xmlns="http://www.w3.org/2000/svg" xmlns:xlink="http://www.w3.org/1999/xlink" x="0px" y="0px"
	 width="360px" height="360px" viewBox="0 0 360 360" enable-background="new 0 0 360 360" xml:space="preserve">
<polygon fill="#FFFFFF" points="109.155,41 143.581,41 63.777,181.5 143.581,322 109.155,322 29.352,181.5 "/>
<polygon fill="#FFFFFF" points="251.846,322 217.419,322 297.223,181.5 217.419,41 251.846,41 331.648,181.5 "/>
<g enable-background="new    ">
	<path fill="#FFFFFF" d="M137.744,161.161v-4.813c0-6.635-3.252-10.668-8.326-10.668c-5.984,0-8.977,5.464-8.977,15.481v47.354
		c0,7.546,3.643,12.359,8.977,12.359c3.643,0,6.635-0.521,8.326-0.91v-27.581h-8.586v-10.928h21.596v47.225
		c-5.074,1.171-14.05,2.342-21.466,2.342c-16.522,0-21.856-8.716-21.856-23.287V160.25c0-17.562,5.334-24.718,22.117-24.718
		c13.92,0,21.206,5.073,21.206,17.042v8.587H137.744z"/>
</g>
<g enable-background="new    ">
	<path fill="#00A3E4" d="M160.379,136.312h20.165c18.994,0,20.945,5.074,20.945,25.629c0,12.619-1.69,18.084-12.358,21.336v0.26
		c8.846,0.911,11.838,5.465,11.838,14.312v20.425c0,3.383,0,8.065,0.781,11.969h-12.229c-1.301-2.342-1.562-4.684-1.562-8.456
		V200.58c0-8.847-1.561-11.188-10.147-11.188h-4.423v40.851h-13.01V136.312z M173.389,178.464h3.382
		c10.278,0,11.709-1.951,11.709-16.002c0-13.92-0.781-15.222-8.847-15.222h-6.245V178.464z"/>
</g>
<g enable-background="new    ">
	<path fill="#FFFFFF" d="M210.984,136.312h20.946c21.075,0,22.767,7.025,22.767,34.346v27.971c0,24.067-4.293,31.613-24.848,31.613
		h-18.865V136.312z M223.994,219.314h6.245c9.627,0,11.448-5.074,11.448-21.206v-32.264c0-13.921-1.431-18.604-12.489-18.604h-5.204
		V219.314z"/>
</g>
<polygon fill="#00A3E4" points="205.129,239.089 181.084,280.734 157.04,239.089 "/>
</svg>
